<svg width="59" height="59" viewBox="0 0 59 59" fill="none" xmlns="http://www.w3.org/2000/svg">
<path d="M17.2265 29.5C17.2265 28.4818 18.0519 27.6563 19.0702 27.6563H27.6562V19.0702C27.6562 18.0519 28.4817 17.2265 29.5 17.2265C30.5182 17.2265 31.3437 18.0519 31.3437 19.0702V27.6563H39.9299C40.9481 27.6563 41.7736 28.4818 41.7736 29.5C41.7736 30.5183 40.9481 31.3438 39.9299 31.3438H31.3437V39.9299C31.3437 40.9481 30.5182 41.7736 29.5 41.7736C28.4817 41.7736 27.6562 40.9481 27.6562 39.9299V31.3438H19.0702C18.0519 31.3438 17.2265 30.5183 17.2265 29.5Z" fill="#00B0D7"/>
<path fill-rule="evenodd" clip-rule="evenodd" d="M17.9869 9.2649C25.5772 8.41658 33.4227 8.41658 41.0129 9.2649C45.5028 9.76671 49.1286 13.3034 49.6567 17.8192C50.5644 25.58 50.5644 33.4201 49.6567 41.1809C49.1286 45.6967 45.5028 49.2334 41.0129 49.7352C33.4227 50.5835 25.5772 50.5835 17.9869 49.7352C13.4971 49.2334 9.87129 45.6967 9.34312 41.1809C8.43543 33.4201 8.43543 25.58 9.34312 17.8192C9.87129 13.3034 13.4971 9.76671 17.9869 9.2649ZM40.6033 12.9296C33.2853 12.1117 25.7146 12.1117 18.3965 12.9296C15.5831 13.244 13.3312 15.4645 13.0057 18.2476C12.1313 25.7238 12.1313 33.2763 13.0057 40.7525C13.3312 43.5356 15.5831 45.7561 18.3965 46.0705C25.7146 46.8884 33.2853 46.8884 40.6033 46.0705C43.4167 45.7561 45.6687 43.5356 45.9942 40.7525C46.8686 33.2763 46.8686 25.7238 45.9942 18.2476C45.6687 15.4645 43.4167 13.244 40.6033 12.9296Z" fill="#00B0D7"/>
</svg>
